<svg xmlns="http://www.w3.org/2000/svg" version="1.1" xmlns:xlink="http://www.w3.org/1999/xlink" xmlns:svgjs="http://svgjs.dev/svgjs" width="2000" height="464" viewBox="0 0 2000 464"><g transform="matrix(1,0,0,1,-1.2121212121212466,-0.3989622860933366)"><svg viewBox="0 0 396 92" data-background-color="#ffbe79" preserveAspectRatio="xMidYMid meet" height="464" width="2000" xmlns="http://www.w3.org/2000/svg" xmlns:xlink="http://www.w3.org/1999/xlink"><g id="tight-bounds" transform="matrix(1,0,0,1,0.2400000000000091,0.07910459120816427)"><svg viewBox="0 0 395.52 91.84179081758367" height="91.84179081758367" width="395.52"><g><svg viewBox="0 0 560.0485872530844 130.0461802138477" height="91.84179081758367" width="395.52"><g><rect width="5.586257229674773" height="112.91998281954935" x="410.14371002532664" y="8.563098697149172" fill="#374151" opacity="1" stroke-width="0" stroke="transparent" fill-opacity="1" class="rect-o-0" data-fill-palette-color="primary" rx="1%" id="o-0" data-palette-color="#374151"></rect></g><g transform="matrix(1,0,0,1,0,17.97309726544495)"><svg viewBox="0 0 395.52 94.0999856829578" height="94.0999856829578" width="395.52"><g id="textblocktransform"><svg viewBox="0 0 395.52 94.0999856829578" height="94.0999856829578" width="395.52" id="textblock"><g><svg viewBox="0 0 395.52 61.944924623115575" height="61.944924623115575" width="395.52"><g transform="matrix(1,0,0,1,0,0)"><svg width="395.52" viewBox="1.0499999523162842 -36.040000915527344 233.17999267578125 36.53000259399414" height="61.944924623115575" data-palette-color="#374151"><path d="M23.22 0L20.41-9.28 8.4-9.28 5.64 0 1.05 0 12.5-35.55 16.33-35.55 27.81 0 23.22 0ZM14.4-29.3L9.57-13.13 19.26-13.13 14.4-29.3ZM40.6 0L32.64 0 32.64-35.55 41.11-35.55Q47.34-35.55 50.78-31.65 54.22-27.76 54.22-20.7L54.22-20.7 54.22-14.75Q54.22-7.69 50.73-3.85 47.24 0 40.6 0L40.6 0ZM41.11-31.69L37.11-31.69 37.11-3.83 40.7-3.83Q45.41-3.83 47.58-6.53 49.75-9.23 49.8-14.53L49.8-14.53 49.8-20.83Q49.8-26.44 47.64-29.06 45.48-31.69 41.11-31.69L41.11-31.69ZM69.14 0L61.18 0 61.18-35.55 69.65-35.55Q75.87-35.55 79.32-31.65 82.76-27.76 82.76-20.7L82.76-20.7 82.76-14.75Q82.76-7.69 79.27-3.85 75.78 0 69.14 0L69.14 0ZM69.65-31.69L65.64-31.69 65.64-3.83 69.23-3.83Q73.95-3.83 76.12-6.53 78.29-9.23 78.34-14.53L78.34-14.53 78.34-20.83Q78.34-26.44 76.18-29.06 74.02-31.69 69.65-31.69L69.65-31.69ZM94.38-35.55L94.38 0 89.91 0 89.91-35.55 94.38-35.55ZM117.74-8.98L117.74-8.98Q117.74-11.65 116.3-13.06 114.86-14.48 111.1-15.82 107.34-17.16 105.35-18.64 103.36-20.12 102.37-22.01 101.38-23.9 101.38-26.34L101.38-26.34Q101.38-30.57 104.2-33.3 107.02-36.04 111.59-36.04L111.59-36.04Q114.71-36.04 117.15-34.63 119.59-33.23 120.91-30.74 122.23-28.25 122.23-25.27L122.23-25.27 117.74-25.27Q117.74-28.56 116.15-30.37 114.57-32.18 111.59-32.18L111.59-32.18Q108.88-32.18 107.39-30.66 105.9-29.15 105.9-26.42L105.9-26.42Q105.9-24.17 107.51-22.66 109.12-21.14 112.49-19.95L112.49-19.95Q117.74-18.21 120-15.67 122.26-13.13 122.26-9.03L122.26-9.03Q122.26-4.71 119.45-2.11 116.64 0.49 111.81 0.49L111.81 0.49Q108.71 0.49 106.08-0.87 103.46-2.22 101.96-4.68 100.45-7.13 100.45-10.3L100.45-10.3 104.95-10.3Q104.95-7.01 106.79-5.18 108.63-3.34 111.81-3.34L111.81-3.34Q114.76-3.34 116.25-4.86 117.74-6.37 117.74-8.98ZM156.04-19.53L156.04-15.7 144.03-15.7 144.03 0 139.56 0 139.56-35.55 158.07-35.55 158.07-31.69 144.03-31.69 144.03-19.53 156.04-19.53ZM168.07-35.55L168.07-3.83 182.01-3.83 182.01 0 163.58 0 163.58-35.55 168.07-35.55ZM207.18 0L204.37-9.28 192.36-9.28 189.6 0 185.01 0 196.46-35.55 200.3-35.55 211.77 0 207.18 0ZM198.37-29.3L193.53-13.13 203.23-13.13 198.37-29.3ZM234.23-35.55L234.23-31.69 224.88-31.69 224.88 0 220.41 0 220.41-31.69 211.09-31.69 211.09-35.55 234.23-35.55Z" opacity="1" transform="matrix(1,0,0,1,0,0)" fill="#374151" class="wordmark-text-0" data-fill-palette-color="primary" id="text-0"></path></svg></g></svg></g><g transform="matrix(1,0,0,1,163.310208,76.56863464844221)"><svg viewBox="0 0 232.209792 17.53135103451559" height="17.53135103451559" width="232.209792"><g transform="matrix(1,0,0,1,0,0)"><svg width="232.209792" viewBox="2.8299999237060547 -35.0099983215332 615.3399658203125 46.459999084472656" height="17.53135103451559" data-palette-color="#374151"><path d="M32.08-17.5L32.08-8.91Q32.08-7.28 31.67-5.97 31.25-4.66 30.57-3.67 29.88-2.69 28.98-1.99 28.08-1.29 27.09-0.85 26.1-0.42 25.1-0.21 24.1 0 23.19 0L23.19 0 11.74 0 11.74-6.35 23.19-6.35Q24.46-6.35 25.1-7.01 25.73-7.67 25.73-8.91L25.73-8.91 25.73-17.46Q25.73-18.77 25.09-19.41 24.44-20.04 23.19-20.04L23.19-20.04 11.79-20.04Q10.5-20.04 9.84-19.4 9.18-18.75 9.18-17.5L9.18-17.5 9.18 8.25 2.83 8.25 2.83-17.5Q2.83-19.14 3.25-20.43 3.66-21.73 4.36-22.72 5.05-23.71 5.96-24.4 6.86-25.1 7.85-25.54 8.84-25.98 9.85-26.18 10.86-26.39 11.74-26.39L11.74-26.39 23.19-26.39Q24.83-26.39 26.12-25.98 27.42-25.56 28.41-24.88 29.39-24.19 30.09-23.29 30.79-22.39 31.23-21.4 31.67-20.41 31.87-19.41 32.08-18.41 32.08-17.5L32.08-17.5ZM60.59-26.39L60.59-20.04 46.31-20.04Q45.02-20.04 44.36-19.4 43.7-18.75 43.7-17.5L43.7-17.5 43.7 0 37.35 0 37.35-17.5Q37.35-19.14 37.77-20.43 38.18-21.73 38.88-22.72 39.57-23.71 40.48-24.4 41.38-25.1 42.37-25.54 43.36-25.98 44.37-26.18 45.38-26.39 46.26-26.39L46.26-26.39 60.59-26.39ZM93.38-17.5L93.38-8.91Q93.38-7.28 92.96-5.97 92.55-4.66 91.87-3.67 91.18-2.69 90.28-1.99 89.37-1.29 88.39-0.85 87.4-0.42 86.38-0.21 85.37 0 84.47 0L84.47 0 73.02 0Q71.7 0 70.14-0.46 68.57-0.93 67.24-1.99 65.91-3.05 65.02-4.75 64.13-6.45 64.13-8.91L64.13-8.91 64.13-17.5Q64.13-19.95 65.02-21.64 65.91-23.34 67.24-24.4 68.57-25.46 70.14-25.93 71.7-26.39 73.02-26.39L73.02-26.39 84.47-26.39Q86.91-26.39 88.62-25.51 90.33-24.63 91.38-23.3 92.43-21.97 92.9-20.41 93.38-18.85 93.38-17.5L93.38-17.5ZM87.03-8.91L87.03-17.46Q87.03-18.77 86.37-19.41 85.71-20.04 84.47-20.04L84.47-20.04 73.07-20.04Q71.8-20.04 71.14-19.4 70.48-18.75 70.48-17.5L70.48-17.5 70.48-8.91Q70.48-7.67 71.14-7.01 71.8-6.35 73.07-6.35L73.07-6.35 84.47-6.35Q85.76-6.35 86.4-7.01 87.03-7.67 87.03-8.91L87.03-8.91ZM127.87-17.5L127.87-8.91Q127.87-7.28 127.46-5.97 127.04-4.66 126.36-3.67 125.68-2.69 124.77-1.99 123.87-1.29 122.88-0.85 121.89-0.42 120.89-0.21 119.89 0 118.99 0L118.99 0 107.54 0 107.54-6.35 118.99-6.35Q120.26-6.35 120.89-7.01 121.53-7.67 121.53-8.91L121.53-8.91 121.53-17.46Q121.53-18.77 120.88-19.41 120.23-20.04 118.99-20.04L118.99-20.04 107.59-20.04Q106.29-20.04 105.63-19.4 104.97-18.75 104.97-17.5L104.97-17.5 104.97 8.25 98.63 8.25 98.63-17.5Q98.63-19.14 99.04-20.43 99.46-21.73 100.15-22.72 100.85-23.71 101.75-24.4 102.65-25.1 103.64-25.54 104.63-25.98 105.64-26.18 106.66-26.39 107.54-26.39L107.54-26.39 118.99-26.39Q120.62-26.39 121.92-25.98 123.21-25.56 124.2-24.88 125.19-24.19 125.88-23.29 126.58-22.39 127.02-21.4 127.46-20.41 127.67-19.41 127.87-18.41 127.87-17.5L127.87-17.5ZM161.68-17.65L161.68-17.65Q161.68-16.33 161.22-14.81 160.76-13.28 159.72-11.98 158.68-10.67 157.01-9.79 155.34-8.91 152.94-8.91L152.94-8.91 141.49-8.91 141.49-14.94 152.94-14.94Q154.24-14.94 154.95-15.73 155.65-16.53 155.65-17.7L155.65-17.7Q155.65-18.95 154.86-19.65 154.07-20.36 152.94-20.36L152.94-20.36 141.49-20.36Q140.2-20.36 139.49-19.57 138.78-18.77 138.78-17.6L138.78-17.6 138.78-8.74Q138.78-7.47 139.58-6.76 140.37-6.05 141.54-6.05L141.54-6.05 152.94-6.05 152.94 0 141.49 0Q140.18 0 138.65-0.46 137.12-0.93 135.82-1.97 134.51-3 133.63-4.68 132.75-6.35 132.75-8.74L132.75-8.74 132.75-17.65Q132.75-18.97 133.22-20.5 133.68-22.02 134.72-23.33 135.76-24.63 137.43-25.51 139.1-26.39 141.49-26.39L141.49-26.39 152.94-26.39Q154.26-26.39 155.79-25.93 157.31-25.46 158.62-24.43 159.93-23.39 160.81-21.72 161.68-20.04 161.68-17.65ZM189.05-26.39L189.05-20.04 174.77-20.04Q173.47-20.04 172.81-19.4 172.16-18.75 172.16-17.5L172.16-17.5 172.16 0 165.81 0 165.81-17.5Q165.81-19.14 166.22-20.43 166.64-21.73 167.33-22.72 168.03-23.71 168.93-24.4 169.84-25.1 170.82-25.54 171.81-25.98 172.83-26.18 173.84-26.39 174.72-26.39L174.72-26.39 189.05-26.39ZM217.22-26.39L217.22-20.04 206.14-20.04 206.14 0 199.72 0 199.72-20.04 191.46-20.04 191.46-26.39 199.72-26.39 199.72-35.01 206.14-35.01 206.14-26.39 217.22-26.39ZM250.5-26.39L250.5 2.54Q250.5 4.17 250.08 5.48 249.67 6.79 248.98 7.78 248.3 8.76 247.39 9.46 246.49 10.16 245.5 10.6 244.51 11.04 243.51 11.24 242.51 11.45 241.61 11.45L241.61 11.45 230.16 11.45 230.16 5.1 241.61 5.1Q242.88 5.1 243.51 4.44 244.15 3.78 244.15 2.54L244.15 2.54 244.15-26.39 250.5-26.39ZM241.61-6.35L241.61 0 230.16 0Q228.79 0 227.24-0.46 225.69-0.93 224.35-1.99 223-3.05 222.13-4.75 221.25-6.45 221.25-8.91L221.25-8.91 221.25-26.39 227.59-26.39 227.59-8.91Q227.59-7.67 228.25-7.01 228.91-6.35 230.21-6.35L230.21-6.35 241.61-6.35ZM296.36-17.5L296.36 0 290.02 0 290.02-17.5Q290.02-18.75 289.36-19.4 288.7-20.04 287.4-20.04L287.4-20.04 279.15-20.04 279.15 0 272.8 0 272.8-23.24Q272.8-23.9 273.05-24.48 273.29-25.05 273.73-25.48 274.17-25.9 274.76-26.15 275.34-26.39 276-26.39L276-26.39 287.45-26.39Q288.77-26.39 290.29-25.93 291.8-25.46 293.17-24.44L293.17-24.44 293.17-26.39 301.76-26.39Q302.66-26.39 303.66-26.18 304.67-25.98 305.65-25.54 306.64-25.1 307.55-24.4 308.45-23.71 309.13-22.72 309.82-21.73 310.23-20.43 310.65-19.14 310.65-17.5L310.65-17.5 310.65 0 304.3 0 304.3-17.5Q304.3-18.75 303.68-19.4 303.05-20.04 301.76-20.04L301.76-20.04 296.05-20.04Q296.36-18.87 296.36-17.5L296.36-17.5ZM343.73-17.65L343.73-8.74Q343.73-7.42 343.26-5.9 342.8-4.37 341.76-3.06 340.72-1.76 339.05-0.88 337.38 0 334.98 0L334.98 0 323.53 0Q322.22 0 320.69-0.46 319.16-0.93 317.86-1.97 316.55-3 315.67-4.68 314.79-6.35 314.79-8.74L314.79-8.74Q314.79-10.06 315.26-11.6 315.72-13.13 316.76-14.44 317.8-15.75 319.47-16.63 321.14-17.5 323.53-17.5L323.53-17.5 334.98-17.5 334.98-11.45 323.53-11.45Q322.24-11.45 321.53-10.66 320.82-9.86 320.82-8.69L320.82-8.69Q320.82-7.45 321.64-6.75 322.46-6.05 323.58-6.05L323.58-6.05 334.98-6.05Q336.28-6.05 336.99-6.84 337.69-7.62 337.69-8.79L337.69-8.79 337.69-17.65Q337.69-18.9 336.93-19.63 336.16-20.36 334.98-20.36L334.98-20.36 321.04-20.36 321.04-26.39 334.98-26.39Q336.3-26.39 337.83-25.93 339.35-25.46 340.66-24.43 341.97-23.39 342.85-21.72 343.73-20.04 343.73-17.65L343.73-17.65ZM378.39-14.65L378.39 0 372.04 0 372.04-14.65Q372.04-15.89 371.62-16.88 371.19-17.87 370.46-18.58 369.72-19.29 368.73-19.67 367.75-20.04 366.6-20.04L366.6-20.04 355.49-20.04 355.49 0 349.14 0 349.14-23.24Q349.14-23.9 349.39-24.48 349.63-25.05 350.07-25.48 350.51-25.9 351.1-26.15 351.68-26.39 352.34-26.39L352.34-26.39 366.65-26.39Q367.84-26.39 369.17-26.12 370.5-25.85 371.81-25.26 373.12-24.66 374.3-23.74 375.49-22.83 376.4-21.52 377.32-20.21 377.85-18.51 378.39-16.8 378.39-14.65L378.39-14.65ZM411.2-17.65L411.2-8.74Q411.2-7.42 410.74-5.9 410.27-4.37 409.24-3.06 408.2-1.76 406.53-0.88 404.85 0 402.46 0L402.46 0 391.01 0Q389.69 0 388.17-0.46 386.64-0.93 385.33-1.97 384.03-3 383.15-4.68 382.27-6.35 382.27-8.74L382.27-8.74Q382.27-10.06 382.73-11.6 383.2-13.13 384.24-14.44 385.27-15.75 386.95-16.63 388.62-17.5 391.01-17.5L391.01-17.5 402.46-17.5 402.46-11.45 391.01-11.45Q389.72-11.45 389.01-10.66 388.3-9.86 388.3-8.69L388.3-8.69Q388.3-7.45 389.12-6.75 389.94-6.05 391.06-6.05L391.06-6.05 402.46-6.05Q403.75-6.05 404.46-6.84 405.17-7.62 405.17-8.79L405.17-8.79 405.17-17.65Q405.17-18.9 404.4-19.63 403.63-20.36 402.46-20.36L402.46-20.36 388.52-20.36 388.52-26.39 402.46-26.39Q403.78-26.39 405.3-25.93 406.83-25.46 408.14-24.43 409.44-23.39 410.32-21.72 411.2-20.04 411.2-17.65L411.2-17.65ZM445.33-17.5L445.33 2.54Q445.33 4.17 444.91 5.48 444.5 6.79 443.82 7.78 443.13 8.76 442.23 9.46 441.32 10.16 440.34 10.6 439.35 11.04 438.33 11.24 437.32 11.45 436.42 11.45L436.42 11.45 424.97 11.45 424.97 5.1 436.42 5.1Q437.71 5.1 438.35 4.44 438.98 3.78 438.98 2.54L438.98 2.54 438.98-17.5Q438.98-18.75 438.35-19.4 437.71-20.04 436.42-20.04L436.42-20.04 424.97-20.04Q423.8-20.04 423.11-19.32 422.43-18.6 422.43-17.5L422.43-17.5 422.43-8.91Q422.43-7.67 423.09-7.01 423.75-6.35 425.02-6.35L425.02-6.35 436.42-6.35 436.42 0 424.97 0Q424.06 0 423.06-0.21 422.06-0.42 421.07-0.85 420.08-1.29 419.18-1.99 418.28-2.69 417.59-3.67 416.91-4.66 416.5-5.97 416.08-7.28 416.08-8.91L416.08-8.91 416.08-17.5Q416.08-18.41 416.29-19.41 416.5-20.41 416.94-21.4 417.37-22.39 418.07-23.29 418.77-24.19 419.76-24.88 420.74-25.56 422.04-25.98 423.33-26.39 424.97-26.39L424.97-26.39 436.42-26.39Q437.32-26.39 438.33-26.18 439.35-25.98 440.34-25.54 441.32-25.1 442.23-24.4 443.13-23.71 443.82-22.72 444.5-21.73 444.91-20.43 445.33-19.14 445.33-17.5L445.33-17.5ZM479.53-17.65L479.53-17.65Q479.53-16.33 479.07-14.81 478.6-13.28 477.57-11.98 476.53-10.67 474.86-9.79 473.18-8.91 470.79-8.91L470.79-8.91 459.34-8.91 459.34-14.94 470.79-14.94Q472.08-14.94 472.79-15.73 473.5-16.53 473.5-17.7L473.5-17.7Q473.5-18.95 472.71-19.65 471.91-20.36 470.79-20.36L470.79-20.36 459.34-20.36Q458.05-20.36 457.34-19.57 456.63-18.77 456.63-17.6L456.63-17.6 456.63-8.74Q456.63-7.47 457.42-6.76 458.22-6.05 459.39-6.05L459.39-6.05 470.79-6.05 470.79 0 459.34 0Q458.02 0 456.5-0.46 454.97-0.93 453.66-1.97 452.36-3 451.48-4.68 450.6-6.35 450.6-8.74L450.6-8.74 450.6-17.65Q450.6-18.97 451.06-20.5 451.53-22.02 452.57-23.33 453.6-24.63 455.28-25.51 456.95-26.39 459.34-26.39L459.34-26.39 470.79-26.39Q472.11-26.39 473.63-25.93 475.16-25.46 476.47-24.43 477.77-23.39 478.65-21.72 479.53-20.04 479.53-17.65ZM507.36-17.5L507.36 0 501.01 0 501.01-17.5Q501.01-18.75 500.35-19.4 499.69-20.04 498.4-20.04L498.4-20.04 490.15-20.04 490.15 0 483.8 0 483.8-23.24Q483.8-23.9 484.04-24.48 484.29-25.05 484.73-25.48 485.17-25.9 485.75-26.15 486.34-26.39 487-26.39L487-26.39 498.45-26.39Q499.77-26.39 501.28-25.93 502.79-25.46 504.16-24.44L504.16-24.44 504.16-26.39 512.76-26.39Q513.66-26.39 514.66-26.18 515.66-25.98 516.65-25.54 517.64-25.1 518.54-24.4 519.44-23.71 520.13-22.72 520.81-21.73 521.23-20.43 521.64-19.14 521.64-17.5L521.64-17.5 521.64 0 515.29 0 515.29-17.5Q515.29-18.75 514.67-19.4 514.05-20.04 512.76-20.04L512.76-20.04 507.04-20.04Q507.36-18.87 507.36-17.5L507.36-17.5ZM555.87-17.65L555.87-17.65Q555.87-16.33 555.4-14.81 554.94-13.28 553.9-11.98 552.87-10.67 551.19-9.79 549.52-8.91 547.13-8.91L547.13-8.91 535.68-8.91 535.68-14.94 547.13-14.94Q548.42-14.94 549.13-15.73 549.84-16.53 549.84-17.7L549.84-17.7Q549.84-18.95 549.04-19.65 548.25-20.36 547.13-20.36L547.13-20.36 535.68-20.36Q534.38-20.36 533.68-19.57 532.97-18.77 532.97-17.6L532.97-17.6 532.97-8.74Q532.97-7.47 533.76-6.76 534.55-6.05 535.73-6.05L535.73-6.05 547.13-6.05 547.13 0 535.68 0Q534.36 0 532.83-0.46 531.31-0.93 530-1.97 528.7-3 527.82-4.68 526.94-6.35 526.94-8.74L526.94-8.74 526.94-17.65Q526.94-18.97 527.4-20.5 527.87-22.02 528.9-23.33 529.94-24.63 531.61-25.51 533.29-26.39 535.68-26.39L535.68-26.39 547.13-26.39Q548.45-26.39 549.97-25.93 551.5-25.46 552.8-24.43 554.11-23.39 554.99-21.72 555.87-20.04 555.87-17.65ZM589.39-14.65L589.39 0 583.04 0 583.04-14.65Q583.04-15.89 582.61-16.88 582.18-17.87 581.45-18.58 580.72-19.29 579.73-19.67 578.74-20.04 577.59-20.04L577.59-20.04 566.49-20.04 566.49 0 560.14 0 560.14-23.24Q560.14-23.9 560.38-24.48 560.63-25.05 561.07-25.48 561.51-25.9 562.09-26.15 562.68-26.39 563.34-26.39L563.34-26.39 577.64-26.39Q578.84-26.39 580.17-26.12 581.5-25.85 582.81-25.26 584.11-24.66 585.3-23.74 586.48-22.83 587.4-21.52 588.31-20.21 588.85-18.51 589.39-16.8 589.39-14.65L589.39-14.65ZM618.17-26.39L618.17-20.04 607.08-20.04 607.08 0 600.66 0 600.66-20.04 592.41-20.04 592.41-26.39 600.66-26.39 600.66-35.01 607.08-35.01 607.08-26.39 618.17-26.39Z" opacity="1" transform="matrix(1,0,0,1,0,0)" fill="#374151" class="slogan-text-1" data-fill-palette-color="secondary" id="text-1"></path></svg></g></svg></g></svg></g></svg></g><g transform="matrix(1,0,0,1,430.3536772803281,0)"><svg viewBox="0 0 129.6949099727563 130.0461802138477" height="130.0461802138477" width="129.6949099727563"><g><svg xmlns="http://www.w3.org/2000/svg" xmlns:xlink="http://www.w3.org/1999/xlink" version="1.1" x="0" y="0" viewBox="2 1.93499755859375 48 48.1300048828125" enable-background="new 0 0 52 52" xml:space="preserve" height="130.0461802138477" width="129.6949099727563" class="icon-icon-0" data-fill-palette-color="accent" id="icon-0"><g fill="#001f3f" data-fill-palette-color="accent"><path d="M26 1.935L2.76 14.065H49.25L26 1.935zM2 46.065v4h48v-4H2zM10 37.565c0-1.93 1.57-3.5 3.5-3.5 1.93 0 3.5 1.57 3.5 3.5v6.5h3v-20h12v20h3v-6.5c0-1.93 1.57-3.5 3.5-3.5 1.93 0 3.5 1.57 3.5 3.5v6.5h5v-28h-6v4H10v-4H5v28h5V37.565z" fill="#001f3f" data-fill-palette-color="accent"></path></g></svg></g></svg></g></svg></g><defs></defs></svg><rect width="395.52" height="91.84179081758367" fill="none" stroke="none" visibility="hidden"></rect></g></svg></g></svg>